# xmcd
#
# Track frame offsets: 
#        150
#        13675
#        27460
#        42462
#        51182
#        64215
#        77577
#        89510
#        103562
#        118112
#        130742
#        142472
#        156815
#        169130
#        181935
#        196455
#        209515
#        222997
#        236625
#        250762
#        261927
#        275542
#        289322
#        301765
#
# Disc length: 4189 seconds
#
# Revision: 6
# Processed by: cddbd v1.5.2PL0 Copyright (c) Steve Scherf et al.
# Submitted via: ExactAudioCopy v1.3
#
DISCID=70105b18
DTITLE=Various Artist - Portrait of gospel, disc 1
DYEAR=1998
DGENRE=Blues
TTITLE0=Mahalia Jackson - Oh my Lord
TTITLE1=Mahalia Jackson - God shall wipe all tears away
TTITLE2=Selah Jubilee Singers - I want Jesus to walk around my bedside
TTITLE3=Blind Willie Davis - When the Saints go marching in
TTITLE4=Blind Joe Taggart - When i stand before the King
TTITLE5=Chicago Sanctified Singers - Tell me what kind of man Jesus is
TTITLE6=Elder Charles Beck - Gabriel
TTITLE7=Rev. Gary Davis - Twelve Gates to the city
TTITLE8=Bessie Smith - Moan, you moaners
TTITLE9=Georgie Peach - Do Lord send me
TTITLE10=Golden Eagle Gospel Singers - Shake Mother's hand for me
TTITLE11=Southern Sons - I'm free at last
TTITLE12=Charioteers - Wade in the water
TTITLE13=Thomas A.Dorsey - If you see my saviour
TTITLE14=Norfolk Jubilee Quartet - Wonder where the gambling man
TTITLE15=Birmingham Jubilee Singers - I want God's bosom to be mine
TTITLE16=Second Zion Four - Praise him shining Angels
TTITLE17=Mitchell's Christian Singers - Them bones
TTITLE18=Heavenly Gospel Singers - Handwriting on the wall
TTITLE19=Heavenly Gospel Singers - When the gates swing open
TTITLE20=Heavenly Gospel Singers - Walk in the Light
TTITLE21=Selah Jubilee Singers - He knows just how much we can bear
TTITLE22=Selah Jubilee Singers - I saw the light
TTITLE23=Dixie Hummingbirds - I looked down the line
EXTD=YEAR: 1998 ID3G:   0
EXTT0=
EXTT1=
EXTT2=
EXTT3=
EXTT4=
EXTT5=
EXTT6=
EXTT7=
EXTT8=
EXTT9=
EXTT10=
EXTT11=
EXTT12=
EXTT13=
EXTT14=
EXTT15=
EXTT16=
EXTT17=
EXTT18=
EXTT19=
EXTT20=
EXTT21=
EXTT22=
EXTT23=
PLAYORDER=
